<?xml version="1.0" encoding="utf-8"?>
<!-- Generator: Adobe Illustrator 19.1.0, SVG Export Plug-In . SVG Version: 6.00 Build 0)  -->
<svg version="1.1" id="Calque_1" xmlns="http://www.w3.org/2000/svg" xmlns:xlink="http://www.w3.org/1999/xlink" x="0px" y="0px"
	 viewBox="-190 163.6 217.6 108.4" style="enable-background:new -190 163.6 217.6 108.4;" xml:space="preserve">
<style type="text/css">
	.st0{fill:transparent;}
	.st1{fill:#041E41;}
	.st2{fill:#BF9F4A;}
</style>
<g id="XMLID_340_">
	<rect id="XMLID_448_" x="-190" y="130.6" class="st0" width="217.6" height="141.4"/>
	<path id="XMLID_429_" class="st1" d="M-158.6,213.7c0.1-0.7,0.4-1,0.7-1c0.3,0,0.6,0.2,1.1,1.2l10.9,22.3l10.9-22.6
		c0.3-0.6,0.5-1,0.9-1c0.4,0,0.6,0.4,0.7,1.2l3.6,24.5c0.4,2.5,0.8,3.7,2,4c1.2,0.4,2,0.4,2.5,0.4c0.4,0,0.6,0,0.6,0.3
		c0,0.3-0.5,0.4-1,0.4c-1,0-6.5-0.1-8.1-0.2c-0.9-0.1-1.2-0.2-1.2-0.4c0-0.2,0.2-0.3,0.4-0.4c0.2-0.1,0.4-0.6,0.2-1.7l-2.4-17.4
		h-0.2l-8.7,17.9c-0.9,1.9-1.1,2.2-1.5,2.2c-0.4,0-0.8-0.8-1.4-2c-1-1.8-4.1-8-4.6-9.1c-0.4-0.8-2.8-5.6-4.2-8.6h-0.2l-2.1,15.6
		c-0.1,0.7-0.1,1.2-0.1,1.9c0,0.8,0.5,1.1,1.2,1.3s1.3,0.2,1.7,0.2c0.3,0,0.6,0.1,0.6,0.3c0,0.4-0.4,0.4-1,0.4
		c-1.7,0-3.5-0.1-4.2-0.1c-0.8,0-2.7,0.1-4,0.1c-0.4,0-0.7-0.1-0.7-0.4c0-0.2,0.2-0.3,0.6-0.3c0.3,0,0.6,0,1.2-0.1
		c1.1-0.2,1.4-1.8,1.6-3.2L-158.6,213.7z"/>
	<path id="XMLID_427_" class="st1" d="M-119.1,227.6c0-5.2,0-6.1,0-7.2c-0.1-1.2-0.4-1.5-1.5-1.8c-0.3-0.1-0.9-0.1-1.4-0.1
		c-0.4,0-0.6-0.1-0.6-0.4c0-0.2,0.3-0.3,0.8-0.3c1.8,0,4.1,0.1,5.1,0.1c1.1,0,8.9,0,9.6,0c0.6,0,1.2-0.2,1.5-0.2
		c0.2,0,0.4-0.2,0.6-0.2s0.2,0.2,0.2,0.3c0,0.2-0.2,0.6-0.3,2.2c0,0.4-0.1,1.8-0.2,2.2c0,0.2-0.1,0.6-0.4,0.6
		c-0.3,0-0.3-0.2-0.3-0.5c0-0.2,0-0.8-0.2-1.2c-0.3-0.6-0.6-1.1-2.3-1.2c-0.6-0.1-4.8-0.2-5.5-0.2c-0.2,0-0.2,0.1-0.2,0.3v8.4
		c0,0.2,0,0.4,0.2,0.4c0.8,0,5.4,0,6.2-0.1c0.8-0.1,1.3-0.2,1.7-0.5c0.3-0.2,0.4-0.4,0.6-0.4s0.3,0.2,0.3,0.4c0,0.2-0.1,0.8-0.3,2.5
		c-0.1,0.7-0.2,2-0.2,2.3c0,0.3,0,0.8-0.4,0.8c-0.2,0-0.3-0.1-0.3-0.3c0-0.4,0-0.8-0.1-1.2c-0.2-0.7-0.6-1.2-2-1.3
		c-0.6-0.1-4.6-0.2-5.5-0.2c-0.2,0-0.2,0.2-0.2,0.4v2.7c0,1.2,0,4,0,5c0.1,2.3,1.2,2.8,4.8,2.8c0.9,0,2.4,0,3.3-0.4
		c0.9-0.4,1.3-1.1,1.5-2.5c0.1-0.4,0.2-0.5,0.4-0.5c0.3,0,0.3,0.4,0.3,0.8c0,0.8-0.3,3.1-0.5,3.8c-0.2,0.9-0.6,0.9-1.9,0.9
		c-2.6,0-4.8,0-6.5-0.1c-1.7,0-3-0.1-4.1-0.1c-0.4,0-1.2,0-2,0s-1.7,0.1-2.4,0.1c-0.4,0-0.7-0.1-0.7-0.4c0-0.2,0.1-0.4,0.6-0.4
		s0.9,0,1.2-0.1c0.7-0.2,0.9-0.8,1-1.8c0.2-1.4,0.2-4.1,0.2-7.3L-119.1,227.6L-119.1,227.6z"/>
	<path id="XMLID_426_" class="st1" d="M-91.3,219.8l-5.2,0.1c-2,0-2.9,0.3-3.4,1c-0.4,0.5-0.5,0.9-0.6,1.2c-0.2,0.3-0.3,0.5-0.5,0.5
		s-0.3-0.2-0.3-0.6c0-0.6,0.7-3.8,0.8-4.1c0.1-0.4,0.2-0.6,0.4-0.6c0.3,0,0.6,0.3,1.5,0.4c1,0.1,2.4,0.2,3.5,0.2h14.3
		c1.1,0,1.9-0.1,2.4-0.2c0.6-0.1,0.8-0.2,1-0.2s0.3,0.2,0.3,0.7c0,0.7-0.1,3.2-0.1,4.1c0,0.4-0.1,0.6-0.3,0.6
		c-0.3,0-0.4-0.2-0.4-0.7v-0.4c-0.1-0.9-1-1.9-4.2-2l-4.4-0.1v13.9c0,3.1,0,5.8,0.2,7.3c0.1,1,0.3,1.6,1.4,1.8
		c0.5,0.1,1.3,0.1,1.8,0.1c0.4,0,0.6,0.2,0.6,0.4c0,0.2-0.3,0.4-0.7,0.4c-2.3,0-4.7-0.1-5.7-0.1c-0.8,0-3.2,0.1-4.6,0.1
		c-0.4,0-0.7-0.1-0.7-0.4c0-0.2,0.1-0.4,0.6-0.4s1,0,1.2-0.1c0.7-0.2,0.9-0.8,1-1.8c0.2-1.4,0.2-4.1,0.2-7.3v-13.8H-91.3z"/>
	<path id="XMLID_425_" class="st1" d="M-70.7,227.6c0-5.2,0-6.1,0-7.2c-0.1-1.2-0.4-1.6-1.2-1.8c-0.4-0.1-0.8-0.2-1.3-0.2
		c-0.4,0-0.6-0.1-0.6-0.4c0-0.2,0.3-0.3,0.8-0.3c1.3,0,3.7,0.1,4.7,0.1c0.9,0,3.2-0.1,4.5-0.1c0.4,0,0.7,0.1,0.7,0.3
		c0,0.3-0.2,0.4-0.6,0.4s-0.6,0-1,0.1c-1,0.2-1.2,0.6-1.3,1.8c-0.1,1.1-0.1,2-0.1,7.2v6c0,3.3,0,6,0.2,7.5c0.1,0.9,0.4,1.4,1.4,1.6
		c0.5,0.1,1.3,0.1,1.8,0.1c0.4,0,0.6,0.2,0.6,0.4c0,0.2-0.3,0.4-0.7,0.4c-2.3,0-4.7-0.1-5.7-0.1c-0.8,0-3.2,0.1-4.6,0.1
		c-0.4,0-0.7-0.1-0.7-0.4c0-0.2,0.1-0.4,0.6-0.4s0.9,0,1.2-0.1c0.7-0.2,0.9-0.6,1-1.6c0.2-1.4,0.2-4.1,0.2-7.4L-70.7,227.6
		L-70.7,227.6z"/>
	<path id="XMLID_421_" class="st1" d="M-54.4,227.6c0-5.2,0-6.1,0-7.2c-0.1-1.2-0.4-1.5-1.5-1.8c-0.3-0.1-0.9-0.1-1.4-0.1
		c-0.4,0-0.6-0.1-0.6-0.4c0-0.2,0.3-0.3,0.8-0.3c1.8,0,4.1,0.1,5.1,0.1c1.1,0,3.6-0.1,5.7-0.1c4.4,0,10.3,0,14.2,3.9
		c1.8,1.8,3.3,4.6,3.3,8.7c0,4.3-1.8,7.5-3.8,9.5c-1.6,1.6-5.3,4-11.8,4c-1.3,0-2.8-0.1-4.2-0.2c-1.4-0.1-2.7-0.2-3.6-0.2
		c-0.4,0-1.2,0-2,0s-1.7,0.1-2.4,0.1c-0.4,0-0.7-0.1-0.7-0.4c0-0.2,0.1-0.4,0.6-0.4s0.9,0,1.2-0.1c0.7-0.2,0.9-0.8,1-1.8
		c0.2-1.4,0.2-4.1,0.2-7.3v-6H-54.4z M-49.6,231.3c0,3.6,0,6.2,0.1,6.9c0,0.8,0.1,2,0.4,2.4c0.4,0.6,1.8,1.4,4.6,1.4
		c3.2,0,5.6-0.6,7.7-2.3c2.3-1.9,3-4.9,3-8.5c0-4.3-1.7-7.1-3.3-8.5c-3.2-2.9-7.1-3.2-9.9-3.2c-0.7,0-1.9,0.1-2.2,0.2
		c-0.3,0.1-0.4,0.3-0.4,0.7c0,1.2,0,4,0,6.7L-49.6,231.3L-49.6,231.3z"/>
	<path id="XMLID_417_" class="st1" d="M-21.5,227.6c0-5.2,0-6.1,0-7.2c-0.1-1.2-0.4-1.5-1.5-1.8c-0.3-0.1-0.9-0.1-1.4-0.1
		c-0.4,0-0.6-0.1-0.6-0.4c0-0.2,0.3-0.3,0.8-0.3c1.8,0,4.4,0.1,5.3,0.1c0.8,0,3.1-0.1,4.5-0.1c0.5,0,0.7,0.1,0.7,0.3
		c0,0.2-0.2,0.4-0.6,0.4c-0.4,0-0.6,0-1,0.1c-1,0.2-1.2,0.6-1.3,1.8c-0.1,1.1-0.1,2-0.1,7.2v6.3c0,1.4,0.1,3.1,0.1,4.8
		c0,1.9-0.1,4.1-0.8,6c-0.8,2.1-2.9,4.5-6.3,6.5c-0.4,0.2-1,0.5-1.8,0.9c-0.2,0.1-0.6,0.2-0.7,0.2c-0.2,0-0.3-0.2-0.3-0.3
		s0.2-0.3,0.8-0.6c0.5-0.2,1-0.6,1.7-1.3c2.7-2.6,2.6-6,2.6-12.7L-21.5,227.6L-21.5,227.6z"/>
	<path id="XMLID_359_" class="st1" d="M-5.7,224.8c0-6.1,0-7.2-0.1-8.5c-0.1-1.4-0.5-2-1.4-2.2c-0.4-0.1-1-0.2-1.4-0.2
		s-0.6-0.1-0.6-0.4c0-0.2,0.3-0.3,1-0.3c1.5,0,4,0.1,5.2,0.1c1,0,3.4-0.1,4.9-0.1c0.5,0,0.8,0.1,0.8,0.3c0,0.3-0.2,0.4-0.6,0.4
		c-0.4,0-0.7,0-1.2,0.1c-1.1,0.2-1.4,0.9-1.5,2.3c-0.1,1.3-0.1,2.4-0.1,8.5v7.1c0,3.9,0,7.1,0.2,8.8c0.1,1.1,0.4,1.8,1.6,2
		c0.6,0.1,1.4,0.2,2,0.2c0.4,0,0.6,0.1,0.6,0.3c0,0.3-0.3,0.4-0.8,0.4c-2.6,0-5.2-0.1-6.2-0.1c-0.9,0-3.4,0.1-5.1,0.1
		c-0.5,0-0.8-0.1-0.8-0.4c0-0.2,0.2-0.3,0.6-0.3c0.6,0,1.1-0.1,1.4-0.2c0.8-0.2,1-0.8,1.2-2c0.2-1.7,0.2-4.8,0.2-8.7v-7.2H-5.7z"/>
	<path id="XMLID_357_" class="st2" d="M-38.2,208.6c0,0-0.3,0-0.9,0.1c-0.6,0.1-1.5,0.2-2.7,0.2c-1.2,0.1-2.6,0.2-4.2,0.3
		c-0.8,0.1-1.7,0.1-2.6,0.2c-0.9,0.1-1.8,0.1-2.8,0.1s-2,0.1-3.1,0.2c-1.1,0-2.2,0.1-3.3,0.1c-2.3,0.1-4.7,0.2-7.1,0.2
		c-1.2,0-2.5,0.1-3.8,0.1c-0.6,0-1.3,0-1.9,0s-1.3,0-1.9,0c-2.6,0-5.2,0-7.9,0.1c-2.6,0-5.3,0-7.9-0.1c-1.3,0-2.6,0-3.9-0.1
		c-1.3,0-2.5-0.1-3.8-0.1c-2.5,0-4.9-0.1-7.1-0.2c-1.1,0-2.2-0.1-3.3-0.1c-1.1-0.1-2.1-0.1-3.1-0.2c-2-0.1-3.8-0.2-5.4-0.3
		s-3-0.2-4.2-0.3c-1.2-0.1-2.1-0.2-2.7-0.2c-0.6-0.1-0.9-0.1-0.9-0.1l0,0c-0.1,0-0.1-0.1-0.1-0.1s0-0.1,0.1-0.1c0,0,21.1,0,42.2-0.1
		c21.1,0,42.2,0.1,42.2,0.1C-38.1,208.5-38.1,208.5-38.2,208.6C-38.1,208.6-38.1,208.6-38.2,208.6L-38.2,208.6z"/>
	<path id="XMLID_356_" class="st2" d="M-38.2,251.2c0,0-0.3,0-0.9,0.1c-0.6,0.1-1.5,0.2-2.7,0.2c-1.2,0.1-2.6,0.2-4.2,0.3
		c-0.8,0.1-1.7,0.1-2.6,0.2c-0.9,0.1-1.8,0.1-2.8,0.1s-2,0.1-3.1,0.2c-1.1,0-2.2,0.1-3.3,0.1c-2.3,0.1-4.7,0.2-7.1,0.2
		c-1.2,0-2.5,0.1-3.8,0.1c-0.6,0-1.3,0-1.9,0s-1.3,0-1.9,0c-2.6,0-5.2,0-7.9,0.1c-2.6,0-5.3,0-7.9-0.1c-1.3,0-2.6,0-3.9-0.1
		c-1.3,0-2.5-0.1-3.8-0.1c-2.5,0-4.9-0.1-7.1-0.2c-1.1,0-2.2-0.1-3.3-0.1c-1.1-0.1-2.1-0.1-3.1-0.2c-2-0.1-3.8-0.2-5.4-0.3
		c-1.6-0.1-3-0.2-4.2-0.3s-2.1-0.2-2.7-0.2c-0.6-0.1-0.9-0.1-0.9-0.1l0,0c-0.1,0-0.1-0.1-0.1-0.1s0-0.1,0.1-0.1c0,0,21.1,0,42.2-0.1
		c21.1,0,42.2,0.1,42.2,0.1C-38.1,251-38.1,251.1-38.2,251.2C-38.1,251.2-38.1,251.2-38.2,251.2L-38.2,251.2z"/>
	<path id="XMLID_355_" class="st2" d="M-38.2,201.7c0,0-0.3,0.1-0.9,0.2c-0.6,0.1-1.5,0.4-2.6,0.6s-2.5,0.5-4.1,0.8
		c-1.6,0.2-3.4,0.5-5.4,0.8c-2,0.2-4.1,0.5-6.4,0.7c-1.1,0.1-2.3,0.2-3.5,0.3s-2.4,0.1-3.7,0.2c-1.2,0.1-2.5,0.2-3.8,0.2
		c-0.6,0-1.3,0.1-1.9,0.1s-1.3,0-2,0.1c-1.3,0-2.6,0.1-3.9,0.1s-2.7,0-4,0.1c-2.7,0-5.3-0.1-7.9-0.1c-2.7-0.2-5.2-0.4-7.7-0.5
		c-1.2-0.1-2.5-0.1-3.7-0.2s-2.4-0.2-3.5-0.3c-2.3-0.2-4.4-0.5-6.4-0.7s-3.8-0.5-5.4-0.8s-3-0.5-4.1-0.8c-1.1-0.2-2-0.5-2.6-0.6
		c-0.6-0.1-0.9-0.2-0.9-0.2l0,0c-0.1,0-0.1-0.1-0.1-0.1l0.1-0.1c0,0,1.3,0.2,3.6,0.5c1.1,0.1,2.5,0.3,4.1,0.5
		c1.6,0.1,3.4,0.3,5.4,0.5c1,0.1,2,0.1,3.1,0.2c0.5,0,1.1,0.1,1.6,0.1c0.6,0,1.1,0.1,1.7,0.1c1.1,0.1,2.3,0.1,3.5,0.2
		c1.2,0,2.4,0.1,3.6,0.1c2.5,0.1,5,0.1,7.6,0.2c2.6,0,5.3,0,7.9,0.1c2.6,0,5.3,0,7.9-0.1s5.2-0.1,7.6-0.2c1.2,0,2.5-0.1,3.6-0.1
		c1.2-0.1,2.4-0.1,3.5-0.2c0.6,0,1.1-0.1,1.7-0.1c0.6,0,1.1-0.1,1.6-0.1c1.1-0.1,2.1-0.1,3.1-0.2c2-0.1,3.8-0.3,5.4-0.5
		c1.6-0.2,3-0.3,4.1-0.5c2.3-0.3,3.6-0.5,3.6-0.5c0.1,0,0.1,0,0.1,0.1C-38.1,201.6-38.1,201.7-38.2,201.7L-38.2,201.7z"/>
	<path id="XMLID_354_" class="st2" d="M-38.2,193.7c0,0-0.3,0.1-0.9,0.4c-0.6,0.3-1.4,0.7-2.5,1.1c-0.6,0.2-1.2,0.4-1.8,0.7
		c-0.7,0.2-1.4,0.5-2.2,0.7c-0.8,0.2-1.6,0.5-2.5,0.7c-0.9,0.2-1.8,0.5-2.8,0.7c-2,0.5-4.1,0.9-6.4,1.3c-1.1,0.2-2.3,0.4-3.5,0.5
		c-0.6,0.1-1.2,0.2-1.8,0.2c-0.6,0.1-1.2,0.1-1.9,0.2c-1.3,0.1-2.5,0.3-3.8,0.4c-0.6,0.1-1.3,0.1-2,0.2c-0.7,0-1.3,0.1-2,0.1
		c-2.7,0.1-5.4,0.2-8.1,0.2c-1.4,0-2.7,0-4-0.1c-1.4,0-2.7-0.1-4-0.1c-0.7,0-1.3-0.1-2-0.1c-0.7-0.1-1.3-0.1-2-0.2
		c-1.3-0.1-2.6-0.2-3.8-0.4c-0.6-0.1-1.3-0.1-1.9-0.2c-0.6-0.1-1.2-0.1-1.8-0.2c-1.2-0.2-2.4-0.3-3.5-0.5c-2.3-0.4-4.4-0.8-6.4-1.3
		c-1-0.2-1.9-0.5-2.8-0.7c-0.9-0.3-1.7-0.5-2.5-0.7c-0.8-0.3-1.5-0.5-2.2-0.7c-0.7-0.3-1.3-0.5-1.8-0.7c-1.1-0.4-1.9-0.8-2.5-1.1
		s-0.9-0.4-0.9-0.4l0,0c0,0-0.1-0.1,0-0.1c0,0,0.1-0.1,0.1,0c0,0,0.3,0.1,0.9,0.3c0.3,0.1,0.7,0.3,1.1,0.4c0.4,0.1,0.9,0.3,1.5,0.5
		s1.2,0.3,1.9,0.5c0.7,0.2,1.4,0.4,2.2,0.6c0.8,0.2,1.6,0.4,2.5,0.6s1.8,0.4,2.8,0.5c1,0.2,2,0.4,3.1,0.5c0.5,0.1,1.1,0.2,1.6,0.2
		c0.6,0.1,1.1,0.1,1.7,0.2c2.3,0.3,4.7,0.5,7.2,0.8c2.5,0.2,5.1,0.4,7.7,0.5s5.3,0.1,8,0.1s5.4,0,8-0.1s5.2-0.3,7.7-0.4
		c2.5-0.2,4.9-0.5,7.2-0.8c0.6-0.1,1.1-0.1,1.7-0.2c0.6-0.1,1.1-0.2,1.6-0.2c1.1-0.2,2.1-0.3,3.1-0.5c1-0.2,1.9-0.4,2.8-0.5
		c0.9-0.2,1.7-0.4,2.5-0.6s1.5-0.4,2.2-0.6c0.7-0.2,1.3-0.4,1.9-0.5c0.6-0.2,1.1-0.3,1.5-0.5c0.4-0.1,0.8-0.3,1.1-0.4
		c0.6-0.2,0.9-0.3,0.9-0.3c0.1,0,0.1,0,0.1,0.1C-38.1,193.7-38.1,193.7-38.2,193.7L-38.2,193.7z"/>
	<path id="XMLID_353_" class="st2" d="M-38.1,183.4c0,0-0.3,0.2-0.7,0.7c-0.2,0.2-0.5,0.5-0.9,0.8s-0.8,0.6-1.3,1
		c-0.5,0.4-1.1,0.8-1.7,1.2c-0.6,0.4-1.3,0.8-2.1,1.3c-1.5,0.9-3.2,1.8-5.2,2.6c-0.5,0.2-1,0.4-1.5,0.6s-1,0.4-1.6,0.6
		c-0.5,0.2-1.1,0.4-1.7,0.6c-0.3,0.1-0.6,0.2-0.8,0.3c-0.3,0.1-0.6,0.2-0.9,0.3c-0.6,0.2-1.2,0.4-1.8,0.5c-0.6,0.2-1.2,0.3-1.8,0.5
		c-0.3,0.1-0.6,0.2-0.9,0.2c-0.3,0.1-0.6,0.1-1,0.2c-0.6,0.1-1.3,0.3-1.9,0.4c-2.6,0.5-5.3,0.9-8.1,1.2c-2.8,0.3-5.6,0.4-8.4,0.4
		h-2.1h-1c-0.3,0-0.7,0-1.1-0.1c-0.7,0-1.4-0.1-2.1-0.1s-1.4-0.1-2.1-0.2c-2.8-0.2-5.5-0.7-8.1-1.2c-1.3-0.3-2.6-0.5-3.8-0.9
		c-0.6-0.2-1.2-0.3-1.8-0.5c-0.6-0.2-1.2-0.4-1.8-0.5c-0.3-0.1-0.6-0.2-0.9-0.3c-0.3-0.1-0.6-0.2-0.8-0.3c-0.6-0.2-1.1-0.4-1.7-0.6
		c-0.5-0.2-1.1-0.4-1.6-0.6c-0.5-0.2-1-0.4-1.5-0.6c-1.9-0.9-3.7-1.7-5.2-2.6c-0.7-0.4-1.4-0.8-2.1-1.3c-0.6-0.4-1.2-0.8-1.7-1.2
		c-0.5-0.4-0.9-0.7-1.3-1c-0.4-0.3-0.7-0.6-0.9-0.8c-0.5-0.4-0.8-0.7-0.8-0.7l0,0v-0.1h0.1c0,0,0.3,0.2,0.8,0.6
		c0.3,0.2,0.6,0.4,1,0.7s0.8,0.6,1.4,0.9c0.5,0.3,1.1,0.7,1.7,1c0.6,0.4,1.3,0.7,2.1,1.1c1.5,0.8,3.3,1.5,5.2,2.3
		c0.5,0.2,1,0.4,1.5,0.5c0.5,0.2,1,0.4,1.6,0.5c0.5,0.2,1.1,0.3,1.6,0.5c0.3,0.1,0.6,0.2,0.8,0.3c0.3,0.1,0.6,0.1,0.9,0.2
		c0.6,0.2,1.2,0.3,1.8,0.5c0.6,0.1,1.2,0.3,1.8,0.4c1.2,0.3,2.5,0.5,3.8,0.7c0.6,0.1,1.3,0.2,1.9,0.3c0.7,0.1,1.3,0.2,2,0.3
		c1.3,0.2,2.7,0.3,4,0.4c2.7,0.2,5.5,0.3,8.3,0.3s5.6-0.1,8.3-0.3c1.4-0.1,2.7-0.3,4-0.4c0.7-0.1,1.3-0.2,2-0.3s1.3-0.2,1.9-0.3
		c1.3-0.2,2.5-0.4,3.8-0.7c0.6-0.1,1.2-0.3,1.8-0.4c0.6-0.2,1.2-0.3,1.8-0.5c0.3-0.1,0.6-0.2,0.9-0.2c0.3-0.1,0.6-0.2,0.8-0.3
		c0.6-0.2,1.1-0.3,1.6-0.5c0.5-0.2,1.1-0.4,1.6-0.5c0.5-0.2,1-0.3,1.5-0.5c1.9-0.8,3.7-1.5,5.2-2.3c0.8-0.4,1.5-0.7,2.1-1.1
		c0.6-0.4,1.2-0.7,1.7-1s1-0.6,1.4-0.9s0.7-0.5,1-0.7c0.5-0.4,0.8-0.6,0.8-0.6h0.1C-38.1,183.3-38.1,183.4-38.1,183.4L-38.1,183.4z"
		/>
	<path id="XMLID_351_" class="st2" d="M-101.8,258.7C-101.7,258.7-101.7,258.7-101.8,258.7v-0.2c0-0.9,0-1.2,0-1.4
		c0-0.2-0.1-0.3-0.3-0.3c-0.1,0-0.2,0-0.2,0c-0.1,0-0.1,0-0.1-0.1c0,0,0-0.1,0.1-0.1c0.3,0,0.8,0,1,0s0.6,0,0.8,0
		c0.1,0,0.1,0,0.1,0.1c0,0,0,0.1-0.1,0.1s-0.1,0-0.2,0c-0.2,0-0.2,0.1-0.2,0.3c0,0.2,0,0.4,0,1.3v1.1c0,0.6,0,1.1,0,1.3
		s0.1,0.3,0.3,0.3c0.1,0,0.2,0,0.3,0c0.1,0,0.1,0,0.1,0.1l-0.1,0.1c-0.4,0-0.8,0-1,0c-0.1,0-0.6,0-0.8,0c-0.1,0-0.1,0-0.1-0.1
		c0,0,0-0.1,0.1-0.1s0.2,0,0.2,0c0.1,0,0.2-0.1,0.2-0.3c0-0.3,0-0.7,0-1.3V259l0,0h-2.4l0,0v0.5c0,0.6,0,1,0,1.3
		c0,0.2,0.1,0.3,0.2,0.3s0.2,0,0.3,0c0.1,0,0.1,0,0.1,0.1l-0.1,0.1c-0.4,0-0.9,0-1,0s-0.6,0-0.8,0c-0.1,0-0.1,0-0.1-0.1
		c0,0,0-0.1,0.1-0.1s0.2,0,0.2,0c0.1,0,0.2-0.1,0.2-0.3c0-0.3,0-0.7,0-1.3v-1.1c0-0.9,0-1.1,0-1.3c0-0.2-0.1-0.3-0.3-0.3
		c-0.1,0-0.2,0-0.3,0c-0.1,0-0.1,0-0.1-0.1l0.1-0.1c0.3,0,0.8,0,0.9,0c0.2,0,0.6,0,0.9,0c0.1,0,0.1,0,0.1,0.1c0,0,0,0.1-0.1,0.1
		s-0.1,0-0.2,0c-0.2,0-0.2,0.1-0.2,0.3c0,0.2,0,0.4,0,1.4v0.1l0,0L-101.8,258.7L-101.8,258.7z"/>
	<path id="XMLID_348_" class="st2" d="M-97.4,259.1c0-1.1,0.7-2.4,2.7-2.4c1.6,0,2.6,0.9,2.6,2.3s-1,2.5-2.7,2.5
		C-96.6,261.5-97.4,260.1-97.4,259.1 M-93,259.2c0-1.4-0.8-2.2-1.8-2.2c-0.7,0-1.5,0.4-1.5,1.9c0,1.3,0.7,2.3,1.9,2.3
		C-94,261.1-93,260.9-93,259.2"/>
	<path id="XMLID_347_" class="st2" d="M-87.9,259.6c0,0.8,0,1.2,0.1,1.3c0.1,0.1,0.4,0.1,0.8,0.1c0.3,0,0.6,0,0.7-0.2
		c0.1-0.1,0.1-0.3,0.2-0.4c0-0.1,0-0.1,0.1-0.1l0.1,0.1c0,0.1,0,0.5-0.1,0.7c0,0.1-0.1,0.2-0.4,0.2c-0.5,0-0.8,0-1.1,0
		c-0.3,0-0.6,0-0.8,0c-0.1,0-0.2,0-0.4,0c-0.2,0-0.3,0-0.4,0s-0.1,0-0.1-0.1c0,0,0-0.1,0.1-0.1s0.2,0,0.2,0c0.1,0,0.2-0.1,0.2-0.3
		c0-0.3,0-0.7,0-1.3v-1.1c0-0.9,0-1.1,0-1.3c0-0.2-0.1-0.3-0.3-0.3c-0.1,0-0.1,0-0.2,0s-0.1,0-0.1-0.1c0,0,0-0.1,0.1-0.1
		c0.3,0,0.7,0,0.9,0c0.2,0,0.7,0,0.9,0c0.1,0,0.1,0,0.1,0.1c0,0,0,0.1-0.1,0.1s-0.2,0-0.2,0c-0.2,0-0.2,0.1-0.2,0.3
		c0,0.2,0,0.4,0,1.3L-87.9,259.6L-87.9,259.6z"/>
	<path id="XMLID_344_" class="st2" d="M-82.5,258.5c0-0.9,0-1.1,0-1.3s-0.1-0.3-0.3-0.3c-0.1,0-0.2,0-0.3,0c-0.1,0-0.1,0-0.1-0.1
		l0.1-0.1c0.3,0,0.7,0,0.9,0c0.2,0,0.7,0,1,0c0.8,0,1.9,0,2.6,0.7c0.3,0.3,0.6,0.8,0.6,1.6s-0.3,1.4-0.7,1.7c-0.3,0.3-1,0.7-2.1,0.7
		c-0.2,0-0.5,0-0.8,0s-0.5,0-0.6,0s-0.2,0-0.4,0c-0.2,0-0.3,0-0.4,0s-0.1,0-0.1-0.1c0,0,0-0.1,0.1-0.1s0.2,0,0.2,0
		c0.1,0,0.2-0.1,0.2-0.3c0-0.3,0-0.7,0-1.3v-1.1H-82.5z M-81.7,259.2c0,0.7,0,1.1,0,1.2c0,0.2,0,0.4,0.1,0.4
		c0.1,0.1,0.3,0.2,0.8,0.2c0.6,0,1-0.1,1.4-0.4c0.4-0.3,0.5-0.9,0.5-1.5c0-0.8-0.3-1.3-0.6-1.5c-0.6-0.5-1.3-0.6-1.8-0.6
		c-0.1,0-0.3,0-0.4,0s-0.1,0-0.1,0.1c0,0.2,0,0.7,0,1.2L-81.7,259.2L-81.7,259.2z"/>
	<path id="XMLID_343_" class="st2" d="M-74.4,258.5c0-0.9,0-1.1,0-1.3s-0.1-0.3-0.2-0.3s-0.2,0-0.2,0c-0.1,0-0.1,0-0.1-0.1
		c0,0,0.1-0.1,0.2-0.1c0.2,0,0.7,0,0.9,0c0.2,0,0.6,0,0.8,0c0.1,0,0.1,0,0.1,0.1c0,0.1,0,0.1-0.1,0.1s-0.1,0-0.2,0
		c-0.2,0-0.2,0.1-0.2,0.3c0,0.2,0,0.4,0,1.3v1.1c0,0.6,0,1.1,0,1.3c0,0.2,0.1,0.3,0.3,0.3c0.1,0,0.2,0,0.3,0c0.1,0,0.1,0,0.1,0.1
		l-0.1,0.1c-0.4,0-0.9,0-1,0s-0.6,0-0.8,0c-0.1,0-0.1,0-0.1-0.1c0,0,0-0.1,0.1-0.1s0.2,0,0.2,0c0.1,0,0.2-0.1,0.2-0.3
		c0-0.3,0-0.7,0-1.3v-1.1H-74.4z"/>
	<path id="XMLID_342_" class="st2" d="M-68.9,260.5c0,0.5,0.1,0.6,0.2,0.7c0.1,0,0.2,0,0.3,0c0.1,0,0.1,0,0.1,0.1
		c0,0.1-0.1,0.1-0.1,0.1c-0.4,0-0.7,0-0.8,0c-0.1,0-0.4,0-0.7,0c-0.1,0-0.1,0-0.1-0.1c0,0,0-0.1,0.1-0.1s0.2,0,0.3,0
		c0.2,0,0.2-0.2,0.2-0.7l0.1-3.7c0-0.1,0-0.2,0.1-0.2s0.2,0.1,0.3,0.2c0.1,0.1,1,1.1,2,2c0.4,0.4,1.3,1.3,1.4,1.4l0,0l-0.1-2.7
		c0-0.4-0.1-0.5-0.2-0.5s-0.2,0-0.3,0c-0.1,0-0.1,0-0.1-0.1s0.1-0.1,0.2-0.1c0.3,0,0.7,0,0.8,0c0.1,0,0.3,0,0.6,0
		c0.1,0,0.1,0,0.1,0.1c0,0,0,0.1-0.1,0.1s-0.1,0-0.2,0c-0.2,0.1-0.2,0.2-0.2,0.5l-0.1,3.9c0,0.1,0,0.2-0.1,0.2s-0.2-0.1-0.3-0.1
		c-0.4-0.4-1.2-1.1-1.9-1.8c-0.7-0.7-1.4-1.4-1.5-1.5l0,0L-68.9,260.5z"/>
	<path id="XMLID_341_" class="st2" d="M-57.2,261c0,0.2,0,0.2-0.1,0.2c-0.4,0.2-1.1,0.3-1.6,0.3c-1.6,0-3-0.7-3-2.4
		c0-1,0.5-1.7,1.1-2c0.6-0.4,1.2-0.4,1.7-0.4c0.4,0,1,0.1,1.1,0.1s0.4,0.1,0.5,0.1s0.1,0,0.1,0.1s0,0.2,0,1c0,0.1,0,0.1-0.1,0.1
		c0,0-0.1,0-0.1-0.1s-0.1-0.3-0.2-0.5c-0.2-0.2-0.7-0.5-1.4-0.5c-0.3,0-0.8,0-1.2,0.4c-0.4,0.3-0.6,0.7-0.6,1.5
		c0,1.3,0.9,2.3,2.2,2.3c0.2,0,0.3,0,0.5-0.1c0.1,0,0.1-0.1,0.1-0.2v-0.6c0-0.3,0-0.5,0-0.7c0-0.2-0.1-0.3-0.3-0.3
		c-0.1,0-0.2,0-0.2,0c-0.1,0-0.1,0-0.1-0.1s0-0.1,0.1-0.1c0.3,0,0.8,0,1,0s0.5,0,0.7,0c0.1,0,0.1,0,0.1,0.1c0,0,0,0.1-0.1,0.1
		s-0.1,0-0.2,0c-0.2,0-0.2,0.1-0.2,0.3c0,0.2,0,0.4,0,0.7v0.7H-57.2z"/>
</g>
</svg>
